<?xml version="1.0" encoding="iso-8859-1"?>
<!-- Generator: Adobe Illustrator 19.0.0, SVG Export Plug-In . SVG Version: 6.00 Build 0)  -->
<svg version="1.1" id="Capa_1" xmlns="http://www.w3.org/2000/svg" xmlns:xlink="http://www.w3.org/1999/xlink" x="0px" y="0px"
	 viewBox="0 0 496 496" style="enable-background:new 0 0 496 496;" xml:space="preserve">
<path style="fill:#D3A06C;" d="M328,56l-1.064-1.592C307.608,25.416,275.072,8,240.224,8C182.664,8,136,54.664,136,112.224V184h224
	V96.984C360,77.6,346.808,60.704,328,56z"/>
<path style="fill:#B27946;" d="M328,56l-1.064-1.592C309.064,27.592,279.848,10.872,248,8.48V16c0,0,72,48,72,112
	c0,19.256,0,38.488,0,56h40V96.984C360,77.6,346.808,60.704,328,56z"/>
<g>
	<path style="fill:#F9E0A6;" d="M168,152c-17.672,0-32,14.328-32,32s14.328,32,32,32h160c17.672,0,32-14.328,32-32s-14.328-32-32-32
		H168z"/>
	<rect x="208" y="248" style="fill:#F9E0A6;" width="80" height="80"/>
</g>
<path style="fill:#798699;" d="M382.32,325.472L288,296l-40,24l-40-24l-94.32,29.472C93.648,331.736,80,350.296,80,371.288V488h336
	V371.288C416,350.296,402.352,331.736,382.32,325.472z"/>
<path style="fill:#677484;" d="M382.32,325.472L288,296l-25.832,15.504l102.456,40.784C376.32,356.944,384,368.264,384,380.856V488
	h32V371.288C416,350.296,402.36,331.736,382.32,325.472z"/>
<polygon style="fill:#ECECEC;" points="288,296 248,322.664 208,296 192,304 200,488 296,488 304,304 "/>
<g>
	<polygon style="fill:#FCD770;" points="280,488 264,376 272,344 248,328 224,344 232,376 216,488 	"/>
	<polygon style="fill:#FCD770;" points="368,336 336,336 328,448 352,472 376,448 	"/>
</g>
<path style="fill:#ECECEC;" d="M329.368,312c-0.888,2.504-1.368,5.192-1.368,8c0,13.256,10.744,24,24,24s24-10.744,24-24
	L329.368,312z"/>
<path style="fill:#EABD8C;" d="M208,287.16c12.192,5.616,25.712,8.84,40,8.84s27.808-3.224,40-8.84V248h-80V287.16z"/>
<path style="fill:#F9E0A6;" d="M256.4,149.656L240,152c5.04-10.072,5.04-21.928,0-32c-21.064,15.8-45.4,26.68-71.224,31.848L168,152
	v48c0,44.184,35.816,80,80,80s80-35.816,80-80v-80C307.008,135.744,282.384,145.944,256.4,149.656z"/>
<path d="M384.704,317.832L296,290.12v-16.456c17.68-11.56,30.912-29.304,36.712-50.136C352.528,221.16,368,204.44,368,184V96.984
	c0-22.024-14.232-41.272-34.984-47.872C312.096,18.336,277.48,0,240.224,0C178.344,0,128,50.344,128,112.224V184
	c0,20.44,15.472,37.16,35.288,39.52c5.792,20.84,19.032,38.576,36.712,50.136v16.456l-88.704,27.72
	C87.792,325.176,72,346.664,72,371.288V496h352V371.288C424,346.664,408.208,325.176,384.704,317.832z M367.76,444.928L352,460.688
	l-15.76-15.76l6.744-94.376C345.864,351.4,348.848,352,352,352s6.136-0.6,9.016-1.456L367.76,444.928z M206.744,304.776
	l26.84,17.888l-31.84,21.224l-1.608-37.048L206.744,304.776z M289.256,304.776l6.608,2.064l-1.608,37.048l-31.84-21.224
	L289.256,304.776z M264.016,342.96L257.752,368h-19.504l-6.256-25.04L248,332.28L264.016,342.96z M202.552,362.576l15.296-10.2
	l6.008,24.04L209.064,480h-1.4L202.552,362.576z M238.936,384h18.128l13.712,96h-45.552L238.936,384z M272.144,376.424l6.008-24.04
	l15.296,10.2L288.344,480h-1.4L272.144,376.424z M311.672,311.776l8.8,2.752c-0.312,1.8-0.472,3.624-0.472,5.472
	c0,7.848,2.952,14.952,7.656,20.52l-7.896,110.552L348.688,480h-44.336L311.672,311.776z M352,336c-8.824,0-16-7.176-16-16
	c0-0.2,0.04-0.4,0.048-0.6l29.408,9.192C362.608,333.032,357.656,336,352,336z M335.664,206.632c0.168-2.2,0.336-4.392,0.336-6.632
	v-38.528c9.288,3.312,16,12.112,16,22.528C352,194.536,345.128,203.416,335.664,206.632z M240.224,16
	c32.248,0,62.176,16.016,80.056,42.84l2.776,4.168l3,0.752C341.336,67.584,352,81.24,352,96.984v55.224
	c-4.672-3.536-10.056-6.184-16-7.392V104l-12.8,9.6c-19.864,14.896-43.352,24.624-67.928,28.136l-3.968,0.568
	c1.264-8.752-0.12-17.832-4.144-25.88l-4.288-8.576L235.2,113.6c-17.576,13.184-37.888,22.904-59.2,28.384V120h-16v24.808
	c-5.944,1.216-11.328,3.856-16,7.392v-39.984C144,59.168,187.168,16,240.224,16z M144,184c0-10.416,6.712-19.216,16-22.528V200
	c0,2.24,0.168,4.432,0.336,6.632C150.872,203.416,144,194.536,144,184z M176,200v-41.536c21.128-4.936,41.448-13.672,59.584-25.592
	c0.592,5.288-0.32,10.712-2.744,15.552l-6.832,13.656l31.52-4.504c22.12-3.16,43.44-10.864,62.464-22.496V200
	c0,39.696-32.304,72-72,72S176,239.696,176,200z M248,288c11.296,0,22.064-2.216,32-6.112v9.832l-32,21.336l-32-21.336v-9.832
	C225.936,285.784,236.704,288,248,288z M88,371.288c0-17.592,11.28-32.936,28.072-38.176l68.264-21.328L191.648,480H160V376h-16v104
	H88V371.288z M408,480h-52.688l28.928-28.928l-7.896-110.552c1.8-2.136,3.36-4.464,4.56-7.024
	C397.136,339.04,408,354.056,408,371.288V480z"/>
<circle cx="288" cy="176" r="8"/>
<circle cx="208" cy="176" r="8"/>
<path d="M280,216h-16c0,8.824-7.176,16-16,16s-16-7.176-16-16h-16c0,17.648,14.352,32,32,32S280,233.648,280,216z"/>
<g>
</g>
<g>
</g>
<g>
</g>
<g>
</g>
<g>
</g>
<g>
</g>
<g>
</g>
<g>
</g>
<g>
</g>
<g>
</g>
<g>
</g>
<g>
</g>
<g>
</g>
<g>
</g>
<g>
</g>
</svg>
